<svg width="55" height="81" viewBox="0 0 55 81" fill="none" xmlns="http://www.w3.org/2000/svg">
    <path d="M17.3301 66.9353C17.3301 66.1627 17.955 65.5364 18.726 65.5364C19.4969 65.5364 20.1218 66.1627 20.1218 66.9353V73.9302C20.1218 74.1844 20.253 74.5127 20.768 74.9603C21.2826 75.4079 22.1557 75.8789 23.3034 76.2117C25.5988 76.8772 28.6036 76.8772 30.8989 76.2117C32.0466 75.8789 32.9198 75.4079 33.4344 74.9603C33.9494 74.5127 34.0806 73.7799 34.0806 73.5257H24.3094C22.4218 73.5524 22.4218 70.9882 24.3094 71.0149H34.0806V68.0471H24.3094C23.5385 68.0471 22.9136 67.6136 22.9136 66.8409C22.9136 66.0683 23.5385 65.5364 24.3094 65.5364H35.4764C36.2462 65.549 36.8863 66.1638 36.8723 66.9353V73.9302C36.8723 75.0206 36.0781 76.3641 35.2638 77.0724C34.3334 77.8815 33.1149 78.4824 31.6732 78.9003C28.7898 79.7363 25.4126 79.7363 22.5292 78.9003C21.0875 78.4824 19.869 77.8815 18.9386 77.0724C18.1237 76.3635 17.3301 75.3291 17.3301 73.9302V66.9353Z" fill="#A9E750"/>
    <path d="M28.0682 11.5828C27.6377 11.5828 27.2248 11.4126 26.9204 11.1095C26.616 10.8064 26.4449 10.3953 26.4449 9.96662V1.61621C26.4449 1.18756 26.616 0.776475 26.9204 0.473377C27.2248 0.170279 27.6377 0 28.0682 0C28.4987 0 28.9115 0.170279 29.2159 0.473377C29.5203 0.776475 29.6914 1.18756 29.6914 1.61621V9.96662C29.6914 10.3953 29.5203 10.8064 29.2159 11.1095C28.9115 11.4126 28.4987 11.5828 28.0682 11.5828Z" fill="#15B8BB"/>
    <mask id="path-3-inside-1_933_42923" fill="white">
    <path fill-rule="evenodd" clip-rule="evenodd" d="M26.917 19.1454C15.1051 19.1454 5.53088 28.6232 5.53088 40.3159C5.53088 47.5078 9.15918 53.8487 14.6963 57.6763V61.4864H39.1376V57.6763C44.6753 53.8487 48.303 47.5078 48.303 40.3159C48.303 28.6232 38.7294 19.1454 26.917 19.1454ZM23.954 45.7216C23.9234 45.932 23.9344 46.3844 23.9446 46.742C23.9441 46.7589 23.9438 46.7757 23.9438 46.7926V54.2057C23.9438 54.6343 24.1148 55.0454 24.4192 55.3485C24.7236 55.6516 25.1365 55.8219 25.567 55.8219C25.9975 55.8219 26.4104 55.6516 26.7148 55.3485C27.0192 55.0454 27.1902 54.6343 27.1902 54.2057V46.7926C27.1902 46.732 27.1868 46.6718 27.1801 46.6122L34.5781 38.5298H28.4424L30.7257 35.9978C30.8678 35.8386 30.9771 35.6531 31.0472 35.4519C31.1173 35.2507 31.1469 35.0377 31.1343 34.8251C31.1218 34.6124 31.0673 34.4044 30.974 34.2127C30.8806 34.0211 30.7503 33.8496 30.5905 33.7081C30.4306 33.5666 30.2443 33.4579 30.0422 33.3881C29.8401 33.3183 29.6262 33.2888 29.4127 33.3013C29.1991 33.3138 28.9902 33.368 28.7977 33.461C28.6052 33.5539 28.433 33.6836 28.2909 33.8428L21.2246 41.7838H27.1871L24.3411 44.8869C24.1337 45.122 23.9992 45.4119 23.954 45.7216Z"/>
    </mask>
    <path fill-rule="evenodd" clip-rule="evenodd" d="M26.917 19.1454C15.1051 19.1454 5.53088 28.6232 5.53088 40.3159C5.53088 47.5078 9.15918 53.8487 14.6963 57.6763V61.4864H39.1376V57.6763C44.6753 53.8487 48.303 47.5078 48.303 40.3159C48.303 28.6232 38.7294 19.1454 26.917 19.1454ZM23.954 45.7216C23.9234 45.932 23.9344 46.3844 23.9446 46.742C23.9441 46.7589 23.9438 46.7757 23.9438 46.7926V54.2057C23.9438 54.6343 24.1148 55.0454 24.4192 55.3485C24.7236 55.6516 25.1365 55.8219 25.567 55.8219C25.9975 55.8219 26.4104 55.6516 26.7148 55.3485C27.0192 55.0454 27.1902 54.6343 27.1902 54.2057V46.7926C27.1902 46.732 27.1868 46.6718 27.1801 46.6122L34.5781 38.5298H28.4424L30.7257 35.9978C30.8678 35.8386 30.9771 35.6531 31.0472 35.4519C31.1173 35.2507 31.1469 35.0377 31.1343 34.8251C31.1218 34.6124 31.0673 34.4044 30.974 34.2127C30.8806 34.0211 30.7503 33.8496 30.5905 33.7081C30.4306 33.5666 30.2443 33.4579 30.0422 33.3881C29.8401 33.3183 29.6262 33.2888 29.4127 33.3013C29.1991 33.3138 28.9902 33.368 28.7977 33.461C28.6052 33.5539 28.433 33.6836 28.2909 33.8428L21.2246 41.7838H27.1871L24.3411 44.8869C24.1337 45.122 23.9992 45.4119 23.954 45.7216Z" fill="url(#paint0_linear_933_42923)"/>
    <path d="M14.6963 57.6763H17.6963V56.1031L16.4022 55.2085L14.6963 57.6763ZM14.6963 61.4864H11.6963V64.4864H14.6963V61.4864ZM39.1376 61.4864V64.4864H42.1376V61.4864H39.1376ZM39.1376 57.6763L37.4318 55.2084L36.1376 56.103V57.6763H39.1376ZM23.9446 46.742L26.9431 46.8364L26.9459 46.7464L26.9434 46.6564L23.9446 46.742ZM23.954 45.7216L20.9854 45.2888L20.9854 45.2888L23.954 45.7216ZM24.4192 55.3485L22.3025 57.4744H22.3025L24.4192 55.3485ZM26.7148 55.3485L24.598 53.2226L24.598 53.2226L26.7148 55.3485ZM27.1801 46.6122L24.9671 44.5866L24.046 45.5929L24.199 46.9485L27.1801 46.6122ZM34.5781 38.5298L36.7911 40.5554L41.3912 35.5298H34.5781V38.5298ZM28.4424 38.5298L26.2145 36.5208L21.6975 41.5298H28.4424V38.5298ZM30.7257 35.9978L32.9537 38.0068L32.9587 38.0012L32.9637 37.9956L30.7257 35.9978ZM31.0472 35.4519L28.2142 34.4648L28.2142 34.4648L31.0472 35.4519ZM31.1343 34.8251L34.1291 34.6482L34.1291 34.6481L31.1343 34.8251ZM30.974 34.2127L28.2768 35.5261L28.2768 35.5261L30.974 34.2127ZM30.5905 33.7081L28.6022 35.9546L28.6022 35.9546L30.5905 33.7081ZM30.0422 33.3881L31.0217 30.5525L31.0217 30.5525L30.0422 33.3881ZM28.7977 33.461L27.4935 30.7593L27.4935 30.7593L28.7977 33.461ZM28.2909 33.8428L26.053 31.8449L26.0498 31.8485L28.2909 33.8428ZM21.2246 41.7838L18.9834 39.7895L14.5392 44.7838H21.2246V41.7838ZM27.1871 41.7838L29.3981 43.8115L34.0093 38.7838H27.1871V41.7838ZM24.3411 44.8869L22.1302 42.8592L22.1108 42.8803L22.0919 42.9017L24.3411 44.8869ZM8.53088 40.3159C8.53088 30.3086 16.7332 22.1454 26.917 22.1454V16.1454C13.477 16.1454 2.53088 26.9377 2.53088 40.3159H8.53088ZM16.4022 55.2085C11.6304 51.9099 8.53088 46.4691 8.53088 40.3159H2.53088C2.53088 48.5465 6.68796 55.7874 12.9905 60.1441L16.4022 55.2085ZM17.6963 61.4864V57.6763H11.6963V61.4864H17.6963ZM39.1376 58.4864H14.6963V64.4864H39.1376V58.4864ZM36.1376 57.6763V61.4864H42.1376V57.6763H36.1376ZM45.303 40.3159C45.303 46.4692 42.204 51.9099 37.4318 55.2084L40.8433 60.1442C47.1467 55.7874 51.303 48.5464 51.303 40.3159H45.303ZM26.917 22.1454C37.1012 22.1454 45.303 30.3085 45.303 40.3159H51.303C51.303 26.9378 40.3576 16.1454 26.917 16.1454V22.1454ZM26.9434 46.6564C26.9382 46.4763 26.9341 46.3115 26.934 46.1734C26.9339 46.1054 26.9349 46.0622 26.9358 46.0402C26.9362 46.0299 26.9362 46.033 26.9352 46.0467C26.9343 46.0581 26.931 46.0969 26.9227 46.1544L20.9854 45.2888C20.9072 45.8258 20.9397 46.6148 20.9458 46.8276L26.9434 46.6564ZM26.9438 46.7926C26.9438 46.8072 26.9436 46.8218 26.9431 46.8364L20.9461 46.6476C20.9446 46.6959 20.9438 46.7443 20.9438 46.7926H26.9438ZM26.9438 54.2057V46.7926H20.9438V54.2057H26.9438ZM26.536 53.2226C26.7956 53.4811 26.9438 53.8345 26.9438 54.2057H20.9438C20.9438 55.4341 21.434 56.6097 22.3025 57.4744L26.536 53.2226ZM25.567 52.8219C25.928 52.8219 26.2768 52.9645 26.536 53.2226L22.3025 57.4744C23.1705 58.3387 24.345 58.8219 25.567 58.8219V52.8219ZM24.598 53.2226C24.8572 52.9645 25.206 52.8219 25.567 52.8219V58.8219C26.789 58.8219 27.9635 58.3387 28.8315 57.4744L24.598 53.2226ZM24.1902 54.2057C24.1902 53.8344 24.3384 53.4811 24.598 53.2226L28.8315 57.4744C29.6999 56.6097 30.1902 55.4342 30.1902 54.2057H24.1902ZM24.1902 46.7926V54.2057H30.1902V46.7926H24.1902ZM24.199 46.9485C24.1932 46.8969 24.1902 46.8449 24.1902 46.7926H30.1902C30.1902 46.6192 30.1804 46.4467 30.1611 46.2758L24.199 46.9485ZM32.3652 36.5042L24.9671 44.5866L29.393 48.6377L36.7911 40.5554L32.3652 36.5042ZM28.4424 41.5298H34.5781V35.5298H28.4424V41.5298ZM28.4978 33.9887L26.2145 36.5208L30.6704 40.5389L32.9537 38.0068L28.4978 33.9887ZM28.2142 34.4648C28.2742 34.2926 28.3674 34.1347 28.4878 33.9999L32.9637 37.9956C33.3683 37.5424 33.6799 37.0135 33.8801 36.439L28.2142 34.4648ZM28.1396 35.0019C28.1288 34.8195 28.1542 34.6369 28.2142 34.4648L33.8801 36.439C34.0803 35.8644 34.165 35.2558 34.1291 34.6482L28.1396 35.0019ZM28.2768 35.5261C28.1971 35.3626 28.1504 35.1844 28.1396 35.002L34.1291 34.6481C34.0932 34.0404 33.9375 33.4462 33.6712 32.8993L28.2768 35.5261ZM28.6022 35.9546C28.4672 35.8351 28.3564 35.6897 28.2768 35.5261L33.6712 32.8993C33.4049 32.3525 33.0335 31.8641 32.5787 31.4616L28.6022 35.9546ZM29.0627 36.2236C28.8937 36.1653 28.7372 36.0741 28.6022 35.9546L32.5787 31.4616C32.124 31.0592 31.5949 30.7505 31.0217 30.5525L29.0627 36.2236ZM29.5881 36.2961C29.4101 36.3066 29.2316 36.282 29.0627 36.2237L31.0217 30.5525C30.4486 30.3545 29.8423 30.271 29.2373 30.3064L29.5881 36.2961ZM30.102 36.1626C29.9407 36.2405 29.7661 36.2857 29.5881 36.2961L29.2373 30.3064C28.6322 30.3418 28.0397 30.4956 27.4935 30.7593L30.102 36.1626ZM30.5289 35.8407C30.4085 35.9756 30.2633 36.0847 30.102 36.1626L27.4935 30.7593C26.9472 31.023 26.4576 31.3917 26.053 31.8449L30.5289 35.8407ZM23.4657 43.7781L30.5321 35.8371L26.0498 31.8485L18.9834 39.7895L23.4657 43.7781ZM27.1871 38.7838H21.2246V44.7838H27.1871V38.7838ZM26.5521 46.9147L29.3981 43.8115L24.9762 39.756L22.1302 42.8592L26.5521 46.9147ZM26.9227 46.1544C26.8836 46.4222 26.7676 46.6713 26.5904 46.8721L22.0919 42.9017C21.4998 43.5726 21.1148 44.4017 20.9854 45.2888L26.9227 46.1544Z" fill="url(#paint1_linear_933_42923)" mask="url(#path-3-inside-1_933_42923)"/>
    <path d="M48.8019 19.276C48.4947 19.2758 48.1939 19.1888 47.9343 19.0252C47.6748 18.8615 47.4672 18.6279 47.3358 18.3514C47.2043 18.0749 47.1543 17.767 47.1917 17.4634C47.229 17.1597 47.3521 16.8729 47.5467 16.6362L52.0916 11.1087C52.2243 10.9376 52.3901 10.7946 52.5792 10.6884C52.7683 10.5822 52.9769 10.5148 53.1926 10.4902C53.4083 10.4657 53.6268 10.4845 53.8351 10.5456C54.0434 10.6066 54.2373 10.7086 54.4053 10.8456C54.5733 10.9826 54.7119 11.1517 54.8131 11.343C54.9143 11.5343 54.9758 11.7439 54.9942 11.9593C55.0126 12.1748 54.9873 12.3917 54.92 12.5972C54.8527 12.8027 54.7446 12.9927 54.6022 13.1559L50.068 18.6834C49.9137 18.8687 49.7203 19.018 49.5014 19.1204C49.2826 19.2228 49.0438 19.2759 48.8019 19.276Z" fill="#15B8BB"/>
    <path d="M6.19806 19.276C5.95757 19.2774 5.71984 19.2248 5.50253 19.1223C5.28522 19.0197 5.09391 18.8697 4.94279 18.6834L0.397814 13.1559C0.255415 12.9927 0.14735 12.8027 0.0800179 12.5972C0.0126853 12.3917 -0.0125475 12.1748 0.00581462 11.9593C0.0241768 11.7439 0.0857608 11.5343 0.186919 11.343C0.288078 11.1517 0.426754 10.9826 0.594741 10.8456C0.762728 10.7086 0.956609 10.6066 1.16491 10.5456C1.37321 10.4845 1.59169 10.4657 1.80742 10.4902C2.02315 10.5148 2.23174 10.5822 2.42085 10.6884C2.60996 10.7946 2.77573 10.9376 2.90837 11.1087L7.45334 16.6362C7.64791 16.8729 7.77102 17.1597 7.80835 17.4634C7.84569 17.767 7.79572 18.0749 7.66425 18.3514C7.53278 18.6279 7.32522 18.8615 7.06568 19.0252C6.80614 19.1888 6.50528 19.2758 6.19806 19.276Z" fill="#15B8BB"/>
    <defs>
    <linearGradient id="paint0_linear_933_42923" x1="9.32519" y1="30.6349" x2="22.9193" y2="66.5118" gradientUnits="userSpaceOnUse">
    <stop stop-color="#15B8BB"/>
    <stop offset="0.692708" stop-color="#87D385"/>
    <stop offset="1" stop-color="#A9E750"/>
    </linearGradient>
    <linearGradient id="paint1_linear_933_42923" x1="9.32519" y1="30.6349" x2="22.9193" y2="66.5118" gradientUnits="userSpaceOnUse">
    <stop stop-color="#15B8BB"/>
    <stop offset="0.692708" stop-color="#87D385"/>
    <stop offset="1" stop-color="#A9E750"/>
    </linearGradient>
    </defs>
</svg>
